<?xml version="1.0" encoding="UTF-8"?>
<svg version="1.1" xmlns="http://www.w3.org/2000/svg" width="512" height="512">
<path d="M0 0 C0.90045044 -0.00705963 1.80090088 -0.01411926 2.7286377 -0.02139282 C40.51335421 -0.25041822 40.51335421 -0.25041822 57.20703125 3.203125 C58.18478516 3.40180176 59.16253906 3.60047852 60.16992188 3.80517578 C105.9819962 13.39124462 147.14369487 33.37304969 181.73828125 64.95703125 C183.3904059 66.46015099 185.05734012 67.94714526 186.73828125 69.41796875 C226.39996462 104.24435431 251.65626119 155.90239213 261.20703125 207.203125 C261.36929199 208.0187793 261.53155273 208.83443359 261.69873047 209.67480469 C267.00913093 237.2625817 266.78966321 269.68621672 261.20703125 297.203125 C260.90901611 298.72631348 260.90901611 298.72631348 260.60498047 300.28027344 C252.28183843 341.88974908 234.54530375 380.65033015 207.20703125 413.203125 C206.77455078 413.72438965 206.34207031 414.2456543 205.89648438 414.78271484 C195.64829009 427.11498979 184.8931482 438.32722383 172.20703125 448.203125 C170.92828875 449.222535 169.64964985 450.24207497 168.37109375 451.26171875 C158.45241386 459.0928693 148.20177911 465.97569261 137.20703125 472.203125 C135.9852417 472.89535156 135.9852417 472.89535156 134.73876953 473.6015625 C77.66099359 505.53071821 6.84886405 514.68336495 -56.2265625 496.890625 C-69.04201748 493.10073631 -81.43707273 488.12431275 -93.87939453 483.27783203 C-99.17295238 481.22355905 -104.47674492 479.19799429 -109.79296875 477.203125 C-110.51983887 476.92887695 -111.24670898 476.65462891 -111.99560547 476.37207031 C-130.7815912 469.47982509 -149.53204561 473.13252948 -167.23046875 481.265625 C-178.0589799 486.47120219 -187.56028938 493.21858816 -197.09765625 500.46484375 C-197.81026611 501.00520264 -198.52287598 501.54556152 -199.25708008 502.10229492 C-200.61273118 503.13650135 -201.96204321 504.17909476 -203.3034668 505.23168945 C-211.7566167 511.74745207 -219.2003485 513.25870477 -229.79296875 512.203125 C-236.88271398 510.47391885 -241.65575917 504.96219843 -245.79296875 499.203125 C-247.8901799 495.12483492 -248.15073186 491.51219903 -248.23046875 486.953125 C-248.27042969 485.71046875 -248.31039062 484.4678125 -248.3515625 483.1875 C-247.69234121 474.23773303 -240.35178996 466.79664378 -235.04296875 460.078125 C-219.23295738 439.64498891 -204.18294589 415.29716658 -207.23046875 388.33203125 C-208.93440158 378.87326775 -212.15604252 370.60223146 -216.35546875 362.00390625 C-245.67587652 301.39482259 -248.56183707 231.2926614 -226.95947266 167.82861328 C-214.73633883 133.25657092 -195.15383325 102.56110974 -169.79296875 76.203125 C-169.24237793 75.62530273 -168.69178711 75.04748047 -168.12451172 74.45214844 C-160.43941255 66.41822519 -152.4814319 59.16148602 -143.55957031 52.52539062 C-141.79475817 51.20446435 -140.05490389 49.85530663 -138.31640625 48.5 C-99.82057628 18.8878231 -48.6787415 0.2556927 0 0 Z M-136.79296875 116.203125 C-139.91662783 119.77866966 -142.88060709 123.4538778 -145.79296875 127.203125 C-146.22367676 127.75742188 -146.65438477 128.31171875 -147.09814453 128.8828125 C-178.8364492 170.05682937 -193.75925015 221.33043168 -188.02734375 273.14453125 C-185.54485675 291.70385314 -180.32877046 308.73766512 -173.79296875 326.203125 C-173.15536621 327.94190918 -173.15536621 327.94190918 -172.50488281 329.71582031 C-167.79649016 342.47603633 -162.90492815 354.22896716 -154.79296875 365.203125 C-154.0865625 366.19699219 -153.38015625 367.19085938 -152.65234375 368.21484375 C-140.63550925 384.74879769 -126.94081224 399.6079422 -110.56494141 411.87548828 C-109.41424958 412.73763518 -108.26780891 413.60549623 -107.12646484 414.47998047 C-66.43624776 445.61462222 -12.36839106 458.598916 38.20703125 452.015625 C70.04947938 447.43948133 101.17594648 436.46158743 127.20703125 417.203125 C127.72910156 416.81946777 128.25117188 416.43581055 128.7890625 416.04052734 C136.292999 410.49824638 143.4445403 404.63743624 150.20703125 398.203125 C150.73941406 397.69797363 151.27179688 397.19282227 151.8203125 396.67236328 C160.4426188 388.43689295 168.21849753 379.86851435 175.20703125 370.203125 C175.62936035 369.61982422 176.05168945 369.03652344 176.48681641 368.43554688 C188.21490905 352.01711829 196.6744653 334.25234453 203.20703125 315.203125 C203.4582373 314.47416016 203.70944336 313.74519531 203.96826172 312.99414062 C213.73676929 284.00722989 215.6712779 252.3635502 211.20703125 222.203125 C211.09407715 221.43387695 210.98112305 220.66462891 210.86474609 219.87207031 C203.04394275 169.51321612 174.16082926 121.67525641 132.99560547 91.49121094 C59.812848 38.78683905 -38.21800211 37.28938216 -136.79296875 116.203125 Z " fill="#FFFFFF" transform="translate(247.79296875,-0.203125)"/>
<path d="M0 0 C16.31730748 10.37494283 29.96312674 25.56123567 41.29296875 41.09375 C41.76653809 41.7336084 42.24010742 42.3734668 42.72802734 43.03271484 C51.01477901 54.26635219 58.3784599 65.97187106 65.29296875 78.09375 C65.73382813 78.86412598 66.1746875 79.63450195 66.62890625 80.42822266 C79.44215572 103.07952389 91.38513899 129.48949317 91.54296875 155.90625 C91.57390625 157.18338867 91.57390625 157.18338867 91.60546875 158.48632812 C91.65102084 165.96256416 90.25093525 172.1288293 86.10546875 178.40625 C78.08463194 186.07060518 68.20625179 187.24990147 57.54296875 187.46875 C56.82898926 187.49485352 56.11500977 187.52095703 55.37939453 187.54785156 C43.51310216 187.58479354 33.16946263 182.36892411 23.10546875 176.59375 C-5.27509823 160.4962194 -32.63721428 160.17468994 -63.8125 168.70703125 C-94.76042577 177.64273539 -118.92744984 189.68371832 -135.70703125 218.09375 C-145.24818904 234.18520469 -154.158038 245.66678693 -172.83203125 251.59375 C-180.48851074 253.54159886 -186.86242604 253.98428811 -193.89453125 250.03125 C-210.26676041 238.36028343 -215.1432035 216.16680887 -218.39453125 197.40625 C-225.69251157 151.26629296 -227.35192986 88.33270824 -200.171875 47.8046875 C-193.62528622 39.59962956 -184.72081677 37.60433445 -174.71435547 36.29833984 C-165.14576111 35.32309269 -156.8794448 37.70888744 -148.01953125 40.9375 C-125.33466638 48.85580189 -93.70741794 38.65404944 -73.0625 28.80859375 C-63.32331763 23.83129333 -56.22738053 17.41071968 -49.33203125 8.96875 C-36.93856554 -5.33140275 -16.29832947 -9.44969698 0 0 Z M-27.70703125 56.09375 C-30.14474851 60.05504054 -30.83456939 62.15315621 -30.20703125 66.78125 C-28.48078129 70.59338533 -27.38255381 72.09618339 -23.70703125 74.09375 C-19.44295957 74.93102723 -16.5953752 74.61516928 -12.83203125 72.40625 C-9.71072091 69.00952993 -8.67307726 66.72354174 -8.76953125 62.09375 C-9.98982147 58.18882129 -11.45740384 56.5662926 -14.70703125 54.09375 C-19.98211135 52.55918124 -23.23435732 52.84089624 -27.70703125 56.09375 Z M-2.01953125 73.84375 C-3.03519006 77.1677243 -3.12499611 79.63061262 -2.70703125 83.09375 C-0.92226884 86.06614241 1.1450493 88.51979027 4.29296875 90.09375 C8.20093355 90.53783691 10.03845021 90.23079844 13.54296875 88.34375 C16.8356429 85.76745308 16.8356429 85.76745308 18.29296875 82.09375 C18.29296875 76.88799922 18.13172148 75.05232455 14.66796875 71.09375 C8.60021823 67.49804599 2.37942189 67.97847915 -2.01953125 73.84375 Z M-44.58203125 84.84375 C-46.23362488 88.14693727 -46.1474608 90.44447662 -45.70703125 94.09375 C-43.78181007 98.17521891 -42.4915506 99.7236937 -38.39453125 101.65625 C-33.81265759 102.19986213 -31.65006673 101.44440577 -27.70703125 99.09375 C-25.43660408 96.38388532 -24.78867349 94.64191936 -24.26953125 91.15625 C-24.83466956 87.20028184 -26.14539266 85.14002291 -28.70703125 82.09375 C-34.77787429 78.83622447 -39.59370454 80.18797841 -44.58203125 84.84375 Z M-161.70703125 96.09375 C-163.17378393 101.0970891 -162.22473091 105.10866569 -160.76953125 109.96875 C-160.57423828 110.65710938 -160.37894531 111.34546875 -160.17773438 112.0546875 C-159.69858051 113.73756938 -159.20433726 115.4161426 -158.70703125 117.09375 C-160.38732422 117.47466797 -160.38732422 117.47466797 -162.1015625 117.86328125 C-163.57435218 118.21037181 -165.04700126 118.55805933 -166.51953125 118.90625 C-167.25751953 119.07189453 -167.99550781 119.23753906 -168.75585938 119.40820312 C-174.00551355 120.53478982 -174.00551355 120.53478982 -177.70703125 124.09375 C-178.29036458 127.59375 -178.29036458 127.59375 -177.70703125 131.09375 C-175.62825703 133.16316037 -174.39234873 134.03930336 -171.4453125 134.2734375 C-165.57059353 133.53555009 -160.2373883 132.21772771 -154.70703125 130.09375 C-154.4646875 131.20234375 -154.22234375 132.3109375 -153.97265625 133.453125 C-153.63487531 134.91684243 -153.29629127 136.38037469 -152.95703125 137.84375 C-152.72113281 138.93816406 -152.72113281 138.93816406 -152.48046875 140.0546875 C-151.45006454 144.41408992 -150.5294205 147.38085576 -146.70703125 150.09375 C-143.08053174 150.18291154 -143.08053174 150.18291154 -139.70703125 149.09375 C-137.32081782 145.51442985 -137.21289676 143.21869877 -137.70703125 139.09375 C-138.57989688 135.05737715 -139.60895892 131.07426221 -140.70703125 127.09375 C-139.02673828 126.60455078 -139.02673828 126.60455078 -137.3125 126.10546875 C-135.83969328 125.66456483 -134.36704518 125.22313079 -132.89453125 124.78125 C-132.15654297 124.56791016 -131.41855469 124.35457031 -130.65820312 124.13476562 C-129.94599609 123.91884766 -129.23378906 123.70292969 -128.5 123.48046875 C-127.84539795 123.28670654 -127.1907959 123.09294434 -126.51635742 122.89331055 C-124.36474263 121.94248901 -123.18256211 120.91994628 -121.70703125 119.09375 C-121.17923649 115.54998519 -121.31663337 113.75572902 -123.14453125 110.65625 C-127.11390214 108.2359019 -130.29614106 109.1371714 -134.70703125 110.09375 C-138.40103251 111.00772969 -142.05947666 112.00971041 -145.70703125 113.09375 C-145.81015625 111.959375 -145.91328125 110.825 -146.01953125 109.65625 C-146.73426755 104.07733611 -147.69362849 98.1700716 -151.70703125 94.03125 C-155.80299954 92.11126486 -158.3570425 93.44902204 -161.70703125 96.09375 Z M-16.70703125 100.09375 C-19.21953708 103.86250875 -19.23719211 105.62525134 -18.70703125 110.09375 C-16.92551058 113.06736628 -14.853959 115.52028612 -11.70703125 117.09375 C-6.73635343 117.4688955 -3.65551623 117.25253799 0.29296875 114.09375 C2.86486554 110.66455428 2.79511075 107.25435514 2.29296875 103.09375 C0.50820634 100.12135759 -1.5591118 97.66770973 -4.70703125 96.09375 C-9.98428136 95.49406249 -12.59410327 96.82210275 -16.70703125 100.09375 Z " fill="#FFFFFF" transform="translate(335.70703125,124.90625)"/>
</svg>
